<svg width="22" height="21" viewBox="0 0 22 21" fill="none" xmlns="http://www.w3.org/2000/svg">
<path d="M6.12227 1.97356L9.072 6.15411L11.6716 9.91023L9.072 13.6557L5.88884 18.1864H3.81979L8.84918 11.0456L9.65558 9.91023L8.84918 8.7643L4.06383 1.97356H6.12227ZM7.15149 0H0.244042L7.23638 9.91023L0 20.16H6.90745L10.6848 14.8547L14.1332 9.96329L10.6848 5.01878L7.15149 0Z" fill="white"/>
<path d="M14.4641 9.91023L21.4564 0H14.549L11.0156 5.01878L10.6124 5.57053C10.8022 5.72138 10.9639 5.90457 11.0899 6.11166C11.4222 6.67324 11.6791 7.27615 11.8539 7.90484C11.947 8.29029 11.9898 8.68617 11.9812 9.08261C12.1288 9.53639 12.1401 10.0235 12.0138 10.4836C11.8874 10.9438 11.6289 11.3568 11.2703 11.6716L11.143 11.9262C11.0581 12.1703 10.9626 12.4037 10.8883 12.6584C10.773 13.0668 10.545 13.4345 10.2305 13.7194L11.0156 14.7805L14.793 20.16H21.7004L14.4641 9.91023Z" fill="white"/>
</svg>
