<svg width="118" height="36" viewBox="0 0 118 36" fill="none" xmlns="http://www.w3.org/2000/svg">
<g clip-path="url(#clip0_1681_20297)">
<path d="M23.7239 35.3218H15.5341L7.75382 24.6517V35.3218H0.5V1.45117H7.75382V21.7268L15.0193 11.1268H23.4899L14.68 23.2243L23.7239 35.3218Z" fill="#000"/>
<path d="M41.1113 11.1261H48.3651V35.3211H41.1113V33.0514C40.2037 34.0495 39.0845 34.8322 37.8356 35.3423C36.5866 35.8524 35.2395 36.077 33.8926 35.9997C32.341 36.0145 30.8048 35.6915 29.3905 35.0531C27.9763 34.4147 26.7179 33.4761 25.7028 32.3026C23.4319 29.834 22.2145 26.5764 22.3099 23.2236C22.2176 19.8748 23.4348 16.622 25.7028 14.1563C26.7158 12.9794 27.9735 12.0378 29.388 11.3973C30.8026 10.7567 32.3399 10.4326 33.8926 10.4475C35.2406 10.37 36.5888 10.5956 37.8381 11.1079C39.0873 11.6202 40.2058 12.406 41.1113 13.4076V11.1261ZM31.19 27.5057C31.7386 28.0422 32.391 28.4611 33.1072 28.7367C33.8234 29.0123 34.5883 29.1388 35.3551 29.1086C36.1201 29.1386 36.8831 29.0119 37.5974 28.7363C38.3116 28.4606 38.962 28.0419 39.5085 27.5057C40.0524 26.9334 40.4748 26.2568 40.7502 25.5169C41.0257 24.7769 41.1485 23.9889 41.1113 23.2002C41.1485 22.4115 41.0257 21.6235 40.7502 20.8835C40.4748 20.1436 40.0524 19.4671 39.5085 18.8947C38.9614 18.3601 38.3107 17.9431 37.5964 17.6695C36.8821 17.3958 36.1193 17.2713 35.3551 17.3036C34.5891 17.2717 33.8247 17.3964 33.1086 17.67C32.3925 17.9436 31.7396 18.3603 31.19 18.8947C30.6482 19.468 30.2279 20.145 29.9545 20.8849C29.681 21.6248 29.5601 22.4123 29.5988 23.2002C29.5568 23.9919 29.6762 24.7839 29.9498 25.5281C30.2233 26.2722 30.6452 26.953 31.19 27.5291V27.5057Z" fill="#000"/>
<path d="M51.4531 35.3214V0H58.7069V35.3214H51.4531Z" fill="#000"/>
<path d="M68.7929 7.72227C68.3898 8.1259 67.9111 8.44611 67.3841 8.66459C66.8571 8.88306 66.2922 8.99551 65.7218 8.99551C65.1513 8.99551 64.5864 8.88306 64.0595 8.66459C63.5325 8.44611 63.0537 8.1259 62.6506 7.72227C62.2379 7.3301 61.9091 6.85835 61.6839 6.33552C61.4586 5.81268 61.3417 5.24962 61.3402 4.68034C61.3324 4.1077 61.4415 3.53948 61.6608 3.01041C61.88 2.48135 62.2049 2.00257 62.6155 1.60332C63.0186 1.19969 63.4974 0.879477 64.0244 0.661004C64.5513 0.44253 65.1162 0.330078 65.6867 0.330078C66.2571 0.330078 66.822 0.44253 67.349 0.661004C67.876 0.879477 68.3547 1.19969 68.7578 1.60332C69.1764 1.99897 69.5095 2.47604 69.7369 3.00519C69.9643 3.53435 70.081 4.10441 70.0799 4.68034C70.0808 5.24784 69.9672 5.80968 69.7461 6.33233C69.525 6.85497 69.2008 7.32769 68.7929 7.72227ZM62.1007 35.3219V11.1269H69.3545V35.3219H62.1007Z" fill="#000"/>
<path d="M76.699 13.501L80.2089 18.5085L83.3912 23.0246L80.2089 27.5173L76.3831 32.9459H73.9261L79.9749 24.3934L80.9343 23.0246L79.9749 21.6557L74.2186 13.4659H76.699M77.9274 11.126H69.6441L78.0327 23.0246L69.3516 35.321H77.635L82.1744 28.8861L86.3161 23.0363L82.1744 17.1864L77.9274 11.126Z" fill="#000"/>
<path d="M86.7027 23.0246L95.0913 11.126H86.8079L82.561 17.1513L82.093 17.8182C82.3172 18.0007 82.5108 18.2179 82.6663 18.4617C83.0523 19.1403 83.3548 19.8631 83.5671 20.6144C83.6731 21.0787 83.7241 21.5539 83.7192 22.0301C83.8978 22.5754 83.9121 23.1612 83.7602 23.7146C83.6084 24.268 83.2971 24.7645 82.8651 25.1422C82.8651 25.2475 82.7598 25.3528 82.713 25.4581C82.6662 25.5634 82.4908 26.0314 82.4089 26.3239C82.2601 26.798 81.985 27.2227 81.6133 27.5524L82.5493 28.8861L87.077 35.321H95.3838L86.7027 23.0246Z" fill="#000"/>
<path d="M113.776 32.3033C111.342 34.6753 108.078 36.0028 104.679 36.0028C101.281 36.0028 98.0164 34.6753 95.5826 32.3033C94.3698 31.1279 93.4124 29.7149 92.7702 28.1528C92.1281 26.5907 91.8149 24.913 91.8504 23.2244C91.8151 21.5375 92.1284 19.8616 92.7706 18.3014C93.4128 16.7412 94.3701 15.3304 95.5826 14.1571C97.3833 12.3784 99.6685 11.1701 102.152 10.6835C104.636 10.1968 107.209 10.4534 109.547 11.4212C111.886 12.3889 113.888 14.0248 115.301 16.1242C116.715 18.2236 117.479 20.6933 117.496 23.2244C117.531 24.9118 117.219 26.5884 116.579 28.1502C115.939 29.712 114.985 31.1256 113.776 32.3033ZM100.707 27.3427C101.776 28.3626 103.196 28.9316 104.673 28.9316C106.15 28.9316 107.571 28.3626 108.639 27.3427C109.173 26.8019 109.591 26.1576 109.867 25.4493C110.143 24.741 110.27 23.9839 110.242 23.2244C110.269 22.4667 110.141 21.7116 109.865 21.0053C109.59 20.2991 109.173 19.6567 108.639 19.1178C107.575 18.0898 106.153 17.5153 104.673 17.5153C103.193 17.5153 101.771 18.0898 100.707 19.1178C100.176 19.6577 99.7609 20.3005 99.4873 21.0067C99.2137 21.7129 99.0873 22.4676 99.1159 23.2244C99.0864 23.983 99.2123 24.7397 99.4859 25.4479C99.7595 26.1561 100.175 26.8009 100.707 27.3427Z" fill="#000"/>
</g>
<defs>
<clipPath id="clip0_1681_20297">
<rect width="116.997" height="36" fill="white" transform="translate(0.5)"/>
</clipPath>
</defs>
</svg>
